<svg id="logos" xmlns="http://www.w3.org/2000/svg" xmlns:xlink="http://www.w3.org/1999/xlink" viewBox="0 0 1202.92 341.13"><defs><style>.cls-1{fill:url(#linear-gradient);}.cls-2{fill:url(#linear-gradient-9);}</style><linearGradient id="linear-gradient" x1="427.07" y1="187.42" x2="1516.05" y2="187.42" gradientUnits="userSpaceOnUse"><stop offset="0" stop-color="#1ecbeb"/><stop offset="1" stop-color="#18e6ed"/></linearGradient><linearGradient id="linear-gradient-9" y1="170.57" x2="389.29" y2="170.57" gradientUnits="userSpaceOnUse"><stop offset="0" stop-color="#3bbaea"/><stop offset="1" stop-color="#18e6ed"/></linearGradient></defs><g id="goopylib"><path class="cls-1" d="M528.49,228.31c0,10.54-2.36,19.08-6.54,26C513.4,268.48,497.05,275,479.23,275a85.17,85.17,0,0,1-45.61-13.63l10.72-23.81c11.81,9.27,25.08,12.72,34,12.72,12.54,0,20.71-7.09,20.71-20.9v-7.82c-7.27,8.73-19.26,11.27-27.8,11.27-25.08,0-44.17-22-44.17-50.16,0-28,19.09-49.43,44.35-49.43,9.45,0,22.72,3.09,29.44,14l2.91-11.81h24.72ZM499,167.24C492.5,160,486,158,478.51,158c-14.72,0-21.63,12.91-21.63,25.45,0,13.08,8,24.72,21.26,24.72,7.46,0,14.91-2.19,20.9-10.91Z"/><path class="cls-1" d="M647.53,184.14c0,28.72-21.27,50.89-51.44,50.89s-51.43-22.17-51.43-50.89,21.26-50.88,51.43-50.88S647.53,155.43,647.53,184.14ZM596.09,158c-13.08,0-21.63,11.27-21.63,26.17s8.55,26.18,21.63,26.18,21.63-11.27,21.63-26.18S609.18,158,596.09,158Z"/><path class="cls-1" d="M761.29,184.14c0,28.72-21.26,50.89-51.43,50.89s-51.43-22.17-51.43-50.89,21.26-50.88,51.43-50.88S761.29,155.43,761.29,184.14ZM709.86,158c-13.09,0-21.63,11.27-21.63,26.17s8.54,26.18,21.63,26.18,21.63-11.27,21.63-26.18S723,158,709.86,158Z"/><path class="cls-1" d="M802.91,135.44l2.73,11.81c6.9-10.72,20.35-14,29.8-14,25.08,0,44.17,23.08,44.17,51.25,0,28-19.09,50.52-44.35,50.52-8.54,0-20.54-2.54-27.62-11.26v54.52H778.19V135.44Zm4.73,65.79c6.36,7.09,12.9,9.09,20.53,9.09,14.72,0,21.63-14,21.63-26.54,0-13.08-8-25.81-21.26-25.81-7.64,0-14.91,2.37-20.9,11.09Z"/><path class="cls-1" d="M917.4,135.44l17.45,53.61h.36l18-53.61H985l-54.88,142.3-26.36-10.17,15.63-41.44-34-90.69Z"/><path class="cls-1" d="M1026.26,232.85H996.82V96.54h29.44Z"/><path class="cls-1" d="M1049.16,123.8V100.54h29.44V123.8Zm0,109.05V135.44h29.44v97.41Z"/><path class="cls-1" d="M1101.5,96.54H1131v48c7.08-8.54,19.08-11.26,27.8-11.26,25.08,0,44.17,23.08,44.17,51.25,0,28-19.09,50.52-44.35,50.52-9.63,0-23.26-3.09-30-14.54l-2.36,12.36H1101.5ZM1131,201.23c6.36,7.09,12.9,9.09,20.53,9.09,14.72,0,21.63-14,21.63-26.54,0-13.08-8-25.81-21.26-25.81-7.64,0-14.91,2.37-20.9,11.09Z"/><polygon class="cls-2" points="389.29 341.13 0 341.13 198.41 0 198.41 0 389.29 341.13"/></g></svg>