<svg id="logos" xmlns="http://www.w3.org/2000/svg" xmlns:xlink="http://www.w3.org/1999/xlink" viewBox="0 0 895.41 936.69"><defs><style>.cls-1{fill:url(#linear-gradient);}.cls-2{fill:url(#linear-gradient-9);}</style><linearGradient id="linear-gradient" y1="831.82" x2="1256.79" y2="831.82" gradientUnits="userSpaceOnUse"><stop offset="0" stop-color="#1ecbeb"/><stop offset="1" stop-color="#18e6ed"/></linearGradient><linearGradient id="linear-gradient-9" x1="60.81" y1="325.77" x2="804.35" y2="325.77" gradientUnits="userSpaceOnUse"><stop offset="0" stop-color="#3bbaea"/><stop offset="1" stop-color="#18e6ed"/></linearGradient></defs><g id="goopylib-2"><path class="cls-1" d="M117,879c0,12.17-2.73,22-7.55,30-9.86,16.36-28.74,23.91-49.29,23.91A98.41,98.41,0,0,1,7.55,917.19l12.38-27.48c13.63,10.7,28.94,14.68,39.22,14.68,14.47,0,23.91-8.18,23.91-24.12v-9c-8.39,10.07-22.23,13-32.09,13-28.95,0-51-25.38-51-57.89,0-32.3,22-57,51.18-57,10.91,0,26.22,3.56,34,16.15l3.35-13.64H117Zm-34-70.47c-7.55-8.39-15.1-10.7-23.7-10.7-17,0-25,14.89-25,29.37,0,15.1,9.23,28.52,24.54,28.52,8.6,0,17.2-2.52,24.12-12.58Z"/><path class="cls-1" d="M254.42,828.05c0,33.14-24.54,58.72-59.36,58.72s-59.35-25.58-59.35-58.72,24.54-58.73,59.35-58.73S254.42,794.91,254.42,828.05Zm-59.36-30.21c-15.1,0-25,13-25,30.21s9.86,30.2,25,30.2,25-13,25-30.2S210.17,797.84,195.06,797.84Z"/><path class="cls-1" d="M385.72,828.05c0,33.14-24.54,58.72-59.35,58.72S267,861.19,267,828.05s24.54-58.73,59.36-58.73S385.72,794.91,385.72,828.05Zm-59.35-30.21c-15.11,0-25,13-25,30.21s9.85,30.2,25,30.2,25-13,25-30.2S341.47,797.84,326.37,797.84Z"/><path class="cls-1" d="M433.76,771.83l3.14,13.64c8-12.38,23.49-16.15,34.4-16.15,28.95,0,51,26.63,51,59.14,0,32.31-22,58.31-51.18,58.31-9.86,0-23.7-2.93-31.88-13v62.92h-34V771.83Zm5.45,75.93c7.34,8.18,14.89,10.49,23.7,10.49,17,0,25-16.15,25-30.62,0-15.11-9.23-29.79-24.54-29.79-8.81,0-17.2,2.73-24.12,12.8Z"/><path class="cls-1" d="M565.9,771.83,586,833.71h.42l20.77-61.88h36.7L580.58,936.07l-30.42-11.75,18-47.82L529,771.83Z"/><path class="cls-1" d="M691.53,884.26h-34V727h34Z"/><path class="cls-1" d="M718,758.41V731.56h34v26.85Zm0,125.85V771.83h34V884.26Z"/><path class="cls-1" d="M778.37,727h34v55.37c8.18-9.86,22-13,32.09-13,28.94,0,51,26.63,51,59.14,0,32.31-22,58.31-51.18,58.31-11.12,0-26.85-3.56-34.61-16.77l-2.73,14.26H778.37Zm34,120.81c7.34,8.18,14.89,10.49,23.7,10.49,17,0,25-16.15,25-30.62,0-15.11-9.23-29.79-24.54-29.79-8.81,0-17.2,2.73-24.12,12.8Z"/><polygon class="cls-2" points="804.35 651.55 60.81 651.55 439.77 0 439.77 0 804.35 651.55"/></g></svg>